<svg width="120" height="120" viewBox="0 0 120 120" fill="none" xmlns="http://www.w3.org/2000/svg">
<!-- Red rounded square background -->
<rect width="120" height="120" rx="30" fill="#E53E3E"/>

<!-- White shield outline -->
<path d="M60 20L30 35V55C30 75 45 92 60 95C75 92 90 75 90 55V35L60 20Z" fill="white"/>

<!-- Inner red shield -->
<path d="M60 28L38 40V56C38 72 50 85 60 87C70 85 82 72 82 56V40L60 28Z" fill="#E53E3E"/>

<!-- WiFi signal lines -->
<path d="M45 50C50 45 55 42 60 42C65 42 70 45 75 50" stroke="white" stroke-width="2.5" stroke-linecap="round" fill="none"/>
<path d="M48 55C52 51 56 49 60 49C64 49 68 51 72 55" stroke="white" stroke-width="2.5" stroke-linecap="round" fill="none"/>
<path d="M51 60C54 57 57 56 60 56C63 56 66 57 69 60" stroke="white" stroke-width="2.5" stroke-linecap="round" fill="none"/>

<!-- Central exclamation mark -->
<ellipse cx="60" cy="65" rx="4" ry="6" fill="white"/>
<circle cx="60" cy="75" r="2" fill="white"/>

<!-- TERAX AI text -->
<text x="60" y="105" font-family="Arial, sans-serif" font-size="12" font-weight="bold" text-anchor="middle" fill="white">TERAX AI</text>
</svg>
